<?xml version="1.0" encoding="utf-8"?>
<!-- Generator: Adobe Illustrator 16.0.0, SVG Export Plug-In . SVG Version: 6.00 Build 0)  -->
<!DOCTYPE svg PUBLIC "-//W3C//DTD SVG 1.1//EN" "http://www.w3.org/Graphics/SVG/1.1/DTD/svg11.dtd">
<svg version="1.1" id="Layer_1" xmlns="http://www.w3.org/2000/svg" xmlns:xlink="http://www.w3.org/1999/xlink" x="0px" y="0px"
	 width="451.039px" height="156.93px" viewBox="0 0 451.039 156.93" enable-background="new 0 0 451.039 156.93"
	 xml:space="preserve">
<g>
	<path fill="#FBB040" d="M77.597,155.919V3.516h26.671v51.996h0.672c5.379-6.573,13.073-9.862,23.084-9.862
		c10.607,0,18.861,4.41,24.765,13.223c1.701,2.542,3.126,5.582,4.338,9.016V0H0v157.128h80.33
		C79.345,156.731,78.42,156.329,77.597,155.919z"/>
	<path fill="#FBB040" d="M149.091,148.186c-3.082,3.66-6.583,6.63-10.492,8.942h18.528v-23.727
		C155.114,139.232,152.457,144.188,149.091,148.186z"/>
	<path fill="#FBB040" d="M119.285,70.08c-7.474,0-12.477,3.887-15.017,11.655v54.46c3.138,1.646,7.246,2.468,12.327,2.468
		c5.677,0,10.009-2.728,13-8.185c2.986-5.45,4.481-14.603,4.481-27.454c0-11.354-1.195-19.685-3.586-24.988
		C128.098,72.734,124.362,70.08,119.285,70.08z"/>
</g>
<g>
	<path fill="#DCDBDB" d="M198.181,122.091c0,4.673,0.467,8.011,1.4,10.012c0.934,2.002,2.468,3.002,4.607,3.002
		c1.199,0,2.433-0.132,3.702-0.4c1.269-0.269,2.705-0.732,4.306-1.4l2.203,19.219c-1.601,1.067-4.341,2.065-8.209,3.001
		c-3.871,0.931-7.807,1.404-11.812,1.404c-6.675,0-11.681-1.672-15.015-5.006c-3.337-3.338-5.006-9.009-5.006-17.02V14.382h23.825
		V122.091z"/>
	<path fill="#DCDBDB" d="M222.806,60.429c4.001-2.402,9.008-4.334,15.015-5.805c6.004-1.468,12.813-2.203,20.421-2.203
		c11.342,0,19.251,2.938,23.723,8.809c4.469,5.876,6.707,14.214,6.707,25.026c0,6.275-0.169,12.448-0.502,18.519
		c-0.333,6.077-0.569,12.01-0.7,17.818c-0.135,5.805-0.036,11.409,0.3,16.818c0.333,5.403,1.234,10.511,2.705,15.312h-19.421
		l-3.803-12.212h-0.803c-2.135,3.875-5.136,7.078-9.008,9.609c-3.871,2.536-8.743,3.804-14.615,3.804
		c-7.876,0-14.083-2.634-18.618-7.909c-4.54-5.269-6.806-12.311-6.806-21.118c0-12.014,4.268-20.555,12.812-25.628
		c8.539-5.07,20.086-7.209,34.634-6.406c0.668-7.739,0.166-13.347-1.499-16.816c-1.672-3.47-5.24-5.206-10.713-5.206
		c-4.002,0-8.142,0.47-12.413,1.402c-4.274,0.935-8.075,2.271-11.412,4.004L222.806,60.429z M251.433,135.505
		c3.606,0,6.538-0.901,8.81-2.702c2.267-1.8,3.935-3.769,5.006-5.904v-16.617c-3.072-0.402-6.006-0.466-8.81-0.204
		c-2.804,0.272-5.275,0.873-7.407,1.803c-2.138,0.937-3.839,2.302-5.105,4.104c-1.272,1.803-1.902,4.104-1.902,6.909
		c0,4.14,0.831,7.275,2.503,9.408C246.193,134.437,248.494,135.505,251.433,135.505z"/>
	<path fill="#DCDBDB" d="M301.484,133.306l32.435-49.052l8.807-8.609h-41.242V54.423h66.269v21.221l-32.034,49.852l-8.609,7.81
		h40.643v21.22h-66.269V133.306z"/>
	<path fill="#DCDBDB" d="M448.235,147.119c-3.337,2.937-7.876,5.337-13.615,7.208c-5.738,1.867-11.745,2.801-18.017,2.801
		c-6.943,0-12.915-1.203-17.918-3.603c-5.006-2.4-9.111-5.873-12.314-10.412c-3.203-4.534-5.574-10.041-7.106-16.515
		c-1.538-6.474-2.302-13.849-2.302-22.125c0-18.02,3.568-31.332,10.71-39.94c7.138-8.609,17.048-12.914,29.729-12.914
		c4.271,0,8.41,0.635,12.413,1.903c4.005,1.271,7.573,3.403,10.713,6.406c3.133,3.004,5.67,7.008,7.607,12.013
		c1.931,5.006,2.903,11.31,2.903,18.918c0,2.94-0.169,6.077-0.501,9.411c-0.333,3.337-0.834,6.944-1.499,10.811h-48.653
		c0.266,8.277,2.002,14.616,5.206,19.021c3.202,4.405,8.34,6.604,15.417,6.604c4.268,0,8.174-0.665,11.71-2.001
		c3.536-1.333,6.24-2.737,8.11-4.207L448.235,147.119z M417.002,72.041c-5.073,0-8.877,2.036-11.412,6.106
		c-2.535,4.075-4.003,9.778-4.402,17.118h27.626c0.399-7.609-0.399-13.378-2.401-17.317
		C424.41,74.012,421.273,72.041,417.002,72.041z"/>
</g>
</svg>
